# xmcd
#
# Track frame offsets:
# 150
# 13865
# 45670
# 68312
# 91562
# 110960
# 137512
# 155185
# 167610
# 188550
# 194870
#
# Disc length: 2917 seconds
#
#
# Revision: 1
# Processed by: cddbd v1.5.1PL0 Copyright (c) Steve Scherf et al.
# Submitted via: FreeRIP 2.942 
#
DISCID=900b630b
DTITLE=Various Artist - Native American Indians
DYEAR=1996
DGENRE=Native American
TTITLE0=How The West Was Lost
TTITLE1=Winter Ceremony
TTITLE2=Celebrate Wild Rice
TTITLE3=The Counter Clockwise Circle
TTITLE4=The Cradle Song
TTITLE5=Advice For The Young
TTITLE6=Wishes Of Happiness And Prosperity
TTITLE7=Elevation
TTITLE8=Intertribal Song To Stop The Train
TTITLE9=Heal The Soul
TTITLE10=Brandishing The Tomahawk
EXTD=YEAR: 1996 ID3G: 64
EXTT0=
EXTT1=
EXTT2=
EXTT3=
EXTT4=
EXTT5=
EXTT6=
EXTT7=
EXTT8=
EXTT9=
EXTT10=
PLAYORDER=
